<svg height="100" viewBox="0 0 100 100" width="100" xmlns="http://www.w3.org/2000/svg"><rect fill="#ddd" height="100%" width="100%"/><path d="m22.055 46.635.14.65q.25-.25.52-.46.28-.21.59-.36.3-.15.66-.23.35-.09.76-.09.68 0 1.2.23.52.23.86.64.35.41.53.99.18.57.18 1.26v5.22h-1.97v-5.22q0-.76-.35-1.17-.34-.41-1.05-.41-.51 0-.96.23-.44.23-.84.63v5.94h-1.98v-8.21h1.21q.38 0 .5.36zm10.95-.49q.91 0 1.66.3.74.3 1.28.84.53.54.82 1.33.28.78.28 1.75 0 .98-.28 1.76-.29.78-.82 1.34-.54.55-1.28.84-.75.3-1.66.3-.92 0-1.68-.3-.75-.29-1.28-.84-.53-.56-.82-1.34-.3-.78-.3-1.76 0-.97.3-1.75.29-.79.82-1.33t1.28-.84q.76-.3 1.68-.3zm0 6.94q1.02 0 1.51-.69t.49-2.01q0-1.33-.49-2.03-.49-.69-1.51-.69-1.04 0-1.54.7t-.5 2.02q0 1.32.5 2.01.5.69 1.54.69zm5.62-6.81h1.98v8.21h-1.98zm2.26-2.39q0 .26-.11.48-.1.22-.27.39-.18.17-.41.27-.23.1-.49.1t-.49-.1q-.23-.1-.39-.27-.17-.17-.27-.39t-.1-.48q0-.26.1-.5.1-.23.27-.4.16-.16.39-.26t.49-.1q.26 0 .49.1.23.1.41.26.17.17.27.4.11.24.11.5zm3.72 10.6h-1.98v-8.21h1.21q.38 0 .5.36l.13.61q.22-.24.45-.44.24-.2.51-.34.26-.15.57-.23.31-.09.68-.09.77 0 1.27.42t.75 1.12q.19-.41.48-.7t.63-.48q.35-.18.74-.27.38-.09.78-.09.68 0 1.2.21.53.21.89.61t.55.98q.19.57.19 1.32v5.22h-1.98v-5.22q0-.79-.34-1.18-.35-.4-1.01-.4-.3 0-.56.1-.26.11-.46.3-.2.2-.31.5-.11.29-.11.68v5.22h-1.98v-5.22q0-.83-.34-1.2-.33-.38-.97-.38-.43 0-.8.21-.37.21-.69.58zm15.76-2.12v-1.38q-.86.04-1.44.14-.59.11-.94.28-.35.17-.5.39-.16.23-.16.49 0 .52.31.74.31.23.81.23.6 0 1.05-.22.44-.22.87-.67zm-4.18-4.31-.35-.63q1.41-1.3 3.41-1.3.72 0 1.28.24.57.23.96.65.4.42.6 1.01.2.58.2 1.28v5.18h-.89q-.28 0-.43-.08-.16-.09-.24-.34l-.18-.6q-.31.28-.61.5-.29.21-.61.35-.32.15-.69.22-.36.08-.8.08-.52 0-.96-.14-.44-.14-.76-.42-.32-.28-.5-.7-.17-.41-.17-.97 0-.31.1-.62.1-.3.34-.58.24-.28.61-.53.38-.25.93-.43.54-.19 1.27-.3.73-.12 1.67-.14v-.48q0-.83-.36-1.22-.35-.4-1.01-.4-.48 0-.8.11-.31.11-.55.25-.24.14-.44.26-.2.11-.44.11-.2 0-.35-.11-.14-.11-.23-.25zm10.96 2.13q.37 0 .64-.1t.45-.28q.18-.18.27-.42.1-.25.1-.55 0-.61-.37-.96-.36-.36-1.09-.36-.73 0-1.09.36-.37.35-.37.96 0 .29.1.54.09.25.27.43.18.18.45.28.28.1.64.1zm2.23 4.67q0-.24-.14-.39-.15-.16-.39-.24-.25-.08-.58-.12-.34-.04-.71-.06l-.77-.04q-.39-.02-.77-.06-.33.18-.53.43t-.2.57q0 .22.1.41.11.19.35.32.23.14.61.21.38.08.92.08.55 0 .95-.08.4-.09.66-.24.26-.14.38-.35.12-.2.12-.44zm-.39-8.3h2.36v.74q0 .35-.42.43l-.74.14q.17.42.17.92 0 .61-.25 1.1-.24.5-.67.84-.43.34-1.02.53-.59.19-1.27.19-.24 0-.46-.02-.23-.03-.44-.07-.39.23-.39.52 0 .25.23.37.23.11.6.16.38.05.86.06.48.01.98.05.51.04.99.14t.85.32q.38.21.61.59.23.37.23.95 0 .55-.27 1.06t-.78.91q-.51.4-1.25.64-.74.25-1.68.25-.93 0-1.62-.18-.68-.18-1.14-.48-.46-.3-.68-.69-.22-.4-.22-.82 0-.58.34-.96.35-.39.96-.62-.33-.17-.52-.45t-.19-.74q0-.18.07-.38.06-.19.2-.39.13-.19.33-.36.2-.17.47-.31-.62-.33-.98-.89t-.36-1.32q0-.6.25-1.1.24-.49.68-.84.43-.34 1.03-.53.6-.18 1.3-.18.53 0 .99.11.47.1.85.31zm5.17 2.88h3.73q0-.38-.11-.72-.11-.34-.33-.6-.21-.25-.54-.4-.34-.15-.78-.15-.85 0-1.34.49-.5.49-.63 1.38zm5.04 1.19h-5.08q.05.64.22 1.1.18.46.47.76.28.3.68.44.4.15.88.15t.82-.11q.35-.11.61-.25.26-.13.46-.25.19-.11.38-.11.25 0 .37.19l.56.72q-.32.38-.73.64t-.85.42q-.45.15-.91.22-.46.06-.89.06-.86 0-1.59-.28-.74-.29-1.28-.84-.55-.56-.86-1.38-.31-.82-.31-1.9 0-.84.27-1.58.27-.74.78-1.29t1.24-.87q.73-.32 1.65-.32.78 0 1.44.25.65.25 1.12.73.48.47.74 1.16.27.7.27 1.58 0 .45-.09.61-.1.15-.37.15z" fill="#999"/></svg>